<svg width="17" height="18" viewBox="0 0 17 18" fill="none" xmlns="http://www.w3.org/2000/svg">
<circle cx="8.48047" cy="5.13281" r="3.625" stroke="#F6F2EC" stroke-width="1.75"/>
<mask id="path-2-inside-1_2008_12343" fill="white">
<path fill-rule="evenodd" clip-rule="evenodd" d="M15.205 17.6328C14.9116 14.8532 12.1999 12.3828 8.48141 12.3828C4.76292 12.3828 2.05118 14.8532 1.7578 17.6328H0C0.291599 13.7238 3.97741 10.6328 8.48141 10.6328C12.9854 10.6328 16.6712 13.7238 16.9628 17.6328H15.205Z"/>
</mask>
<path fill-rule="evenodd" clip-rule="evenodd" d="M15.205 17.6328C14.9116 14.8532 12.1999 12.3828 8.48141 12.3828C4.76292 12.3828 2.05118 14.8532 1.7578 17.6328H0C0.291599 13.7238 3.97741 10.6328 8.48141 10.6328C12.9854 10.6328 16.6712 13.7238 16.9628 17.6328H15.205Z" fill="#FFFEFC"/>
<path d="M15.205 17.6328L13.2161 17.8427L13.405 19.6328H15.205V17.6328ZM1.7578 17.6328V19.6328H3.55781L3.74675 17.8427L1.7578 17.6328ZM0 17.6328L-1.99446 17.484L-2.15475 19.6328H0V17.6328ZM16.9628 17.6328V19.6328H19.1176L18.9573 17.484L16.9628 17.6328ZM17.194 17.4229C16.7759 13.4622 13.05 10.3828 8.48141 10.3828V14.3828C11.3498 14.3828 13.0473 16.2442 13.2161 17.8427L17.194 17.4229ZM8.48141 10.3828C3.91278 10.3828 0.186894 13.4622 -0.231153 17.4229L3.74675 17.8427C3.91547 16.2442 5.61307 14.3828 8.48141 14.3828V10.3828ZM0 19.6328H1.7578V15.6328H0V19.6328ZM8.48141 8.63281C3.1395 8.63281 -1.61035 12.3349 -1.99446 17.484L1.99446 17.7816C2.19355 15.1127 4.81532 12.6328 8.48141 12.6328V8.63281ZM18.9573 17.484C18.5732 12.3349 13.8233 8.63281 8.48141 8.63281V12.6328C12.1475 12.6328 14.7693 15.1127 14.9684 17.7816L18.9573 17.484ZM15.205 19.6328H16.9628V15.6328H15.205V19.6328Z" fill="#F6F2EC" mask="url(#path-2-inside-1_2008_12343)"/>
</svg>
